# 3ds Max Wavefront OBJ Exporter v0.99 - (c)2007 guruware
# 创建的文件:31.12.2021 12:10:46

#
# object Line02
#

v  -211.9138 1208.3379 -197.1715
v  -211.9138 1127.5936 -197.1715
v  -212.1452 1127.5936 -195.3391
v  -212.1452 1208.3379 -195.3391
v  -202.4940 1127.5936 -197.1714
v  -203.0214 1127.5936 -192.9964
v  -209.8935 769.1972 -197.1715
v  -210.1885 769.1972 -194.8367
v  -151.4078 769.1972 -197.1710
v  -153.5404 769.1972 -180.2914
v  -137.5577 763.5682 -197.1709
v  -140.1254 763.5682 -176.8470
v  -137.5577 747.5385 -197.1709
v  -140.1254 747.5385 -176.8470
v  -212.8252 1127.5936 -193.6218
v  -212.8252 1208.3379 -193.6218
v  -204.5706 1127.5936 -189.0838
v  -211.0549 769.1972 -192.6486
v  -159.8037 769.1972 -164.4725
v  -147.6668 763.5682 -157.8000
v  -147.6668 747.5385 -157.8000
v  -213.9108 1127.5936 -192.1276
v  -213.9108 1208.3379 -192.1276
v  -207.0441 1127.5936 -185.6793
v  -212.4382 769.1972 -190.7447
v  -169.8042 769.1972 -150.7081
v  -159.7080 763.5682 -141.2270
v  -159.7080 747.5385 -141.2270
v  -215.3339 1127.5936 -190.9503
v  -215.3339 1208.3379 -190.9503
v  -210.2866 1127.5936 -182.9969
v  -214.2515 769.1972 -189.2446
v  -182.9137 769.1972 -139.8633
v  -175.4925 763.5682 -128.1692
v  -175.4925 747.5385 -128.1692
v  -217.0051 1127.5936 -190.1639
v  -217.0051 1208.3379 -190.1639
v  -214.0943 1127.5936 -181.2052
v  -216.3809 769.1972 -188.2426
v  -198.3082 769.1972 -132.6193
v  -194.0284 763.5682 -119.4470
v  -194.0284 747.5385 -119.4470
v  -218.8193 1127.5936 -189.8178
v  -218.8193 1208.3379 -189.8178
v  -218.2279 1127.5936 -180.4166
v  -218.6926 769.1972 -187.8017
v  -215.0207 769.1972 -129.4313
v  -214.1511 763.5682 -115.6086
v  -214.1511 747.5385 -115.6086
v  -220.6627 1127.5936 -189.9338
v  -220.6627 1208.3379 -189.9338
v  -222.4278 1127.5936 -180.6809
v  -221.0413 769.1972 -187.9494
v  -232.0009 769.1972 -130.4998
v  -234.5962 763.5682 -116.8950
v  -234.5962 747.5385 -116.8950
v  -222.4192 1127.5936 -190.5045
v  -222.4192 1208.3379 -190.5045
v  -226.4301 1127.5936 -181.9813
v  -223.2795 769.1972 -188.6767
v  -248.1819 769.1972 -135.7574
v  -254.0790 763.5682 -123.2256
v  -254.0791 747.5385 -123.2256
v  -223.9787 1127.5936 -191.4942
v  -223.9787 1208.3379 -191.4942
v  -229.9831 1127.5936 -184.2362
v  -225.2665 769.1972 -189.9377
v  -262.5470 769.1972 -144.8740
v  -271.3755 763.5682 -134.2024
v  -271.3755 747.5385 -134.2024
v  -225.2430 1127.5936 -192.8406
v  -225.2430 1208.3379 -192.8406
v  -232.8638 1127.5936 -187.3038
v  -226.8775 769.1972 -191.6533
v  -274.1936 769.1972 -157.2766
v  -285.3987 763.5682 -149.1358
v  -285.3987 747.5385 -149.1358
v  -226.1328 1127.5936 -194.4591
v  -226.1328 1208.3379 -194.4591
v  -234.8911 1127.5936 -190.9915
v  -228.0112 769.1972 -193.7155
v  -282.3900 769.1972 -172.1859
v  -295.2675 763.5682 -167.0875
v  -295.2675 747.5385 -167.0875
v  -226.5921 1127.5936 -196.2480
v  -226.5921 1208.3379 -196.2480
v  -235.9376 1127.5936 -195.0675
v  -228.5964 769.1972 -195.9950
v  -286.6210 769.1972 -188.6652
v  -300.3619 763.5682 -186.9294
v  -300.3619 747.5385 -186.9295
v  -226.5921 1127.5936 -198.0950
v  -226.5921 1208.3379 -198.0950
v  -235.9376 1127.5936 -199.2757
v  -228.5964 769.1972 -198.3484
v  -286.6208 769.1972 -205.6790
v  -300.3617 763.5682 -207.4150
v  -300.3617 747.5385 -207.4150
v  -226.1328 1127.5936 -199.8840
v  -226.1328 1208.3379 -199.8839
v  -234.8910 1127.5936 -203.3517
v  -228.0111 769.1972 -200.6278
v  -282.3896 769.1972 -222.1582
v  -295.2670 763.5682 -227.2569
v  -295.2670 747.5385 -227.2569
v  -225.2430 1127.5936 -201.5025
v  -225.2430 1208.3379 -201.5024
v  -232.8637 1127.5936 -207.0393
v  -226.8773 769.1972 -202.6900
v  -274.1930 769.1972 -237.0675
v  -285.3979 763.5682 -245.2084
v  -285.3979 747.5385 -245.2084
v  -223.9786 1127.5936 -202.8488
v  -223.9787 1208.3379 -202.8488
v  -229.9830 1127.5936 -210.1069
v  -225.2663 769.1972 -204.4056
v  -262.5462 769.1972 -249.4699
v  -271.3745 763.5682 -260.1416
v  -271.3745 747.5385 -260.1416
v  -222.4192 1127.5936 -203.8385
v  -222.4192 1208.3379 -203.8385
v  -226.4299 1127.5936 -212.3618
v  -223.2793 769.1972 -205.6665
v  -248.1809 769.1972 -258.5862
v  -254.0779 763.5682 -271.1182
v  -254.0779 747.5385 -271.1182
v  -220.6626 1127.5936 -204.4092
v  -220.6626 1208.3379 -204.4092
v  -222.4276 1127.5936 -213.6622
v  -221.0411 769.1972 -206.3937
v  -231.9998 769.1972 -263.8436
v  -234.5949 763.5682 -277.4484
v  -234.5949 747.5385 -277.4484
v  -218.8193 1127.5936 -204.5252
v  -218.8193 1208.3379 -204.5252
v  -218.2278 1127.5936 -213.9264
v  -218.6924 769.1972 -206.5415
v  -215.0196 769.1972 -264.9117
v  -214.1498 763.5682 -278.7345
v  -214.1498 747.5385 -278.7345
v  -217.0051 1127.5936 -204.1791
v  -217.0051 1208.3379 -204.1791
v  -214.0941 1127.5936 -213.1378
v  -216.3807 769.1972 -206.1005
v  -198.3072 769.1972 -261.7236
v  -194.0272 763.5682 -274.8958
v  -194.0272 747.5385 -274.8958
v  -215.3339 1127.5936 -203.3927
v  -215.3339 1208.3379 -203.3927
v  -210.2864 1127.5936 -211.3460
v  -214.2513 769.1972 -205.0984
v  -182.9128 769.1972 -254.4793
v  -175.4914 763.5682 -266.1733
v  -175.4914 747.5385 -266.1733
v  -213.9108 1127.5936 -202.2154
v  -213.9108 1208.3379 -202.2154
v  -207.0440 1127.5936 -208.6636
v  -212.4380 769.1972 -203.5983
v  -169.8035 769.1972 -243.6342
v  -159.7071 763.5682 -253.1152
v  -159.7071 747.5385 -253.1152
v  -212.8251 1127.5936 -200.7212
v  -212.8251 1208.3379 -200.7212
v  -204.5705 1127.5936 -205.2591
v  -211.0548 769.1972 -201.6944
v  -159.8031 769.1972 -229.8697
v  -147.6662 763.5682 -236.5419
v  -147.6662 747.5385 -236.5419
v  -212.1452 1127.5936 -199.0039
v  -212.1452 1208.3379 -199.0039
v  -203.0214 1127.5936 -201.3464
v  -210.1885 769.1972 -199.5063
v  -153.5401 769.1972 -214.0507
v  -140.1251 763.5682 -217.4949
v  -140.1251 747.5385 -217.4949
# 175 vertices

vn 1.0000 -0.0000 0.0000
vn 1.0000 0.0000 0.0000
vn 0.9686 -0.0000 0.2487
vn 0.0000 1.0000 -0.0000
vn 0.9998 -0.0186 0.0000
vn 0.9684 -0.0186 0.2487
vn 0.4107 0.9118 0.0000
vn 0.3978 0.9118 0.1021
vn 0.8763 -0.0000 0.4818
vn 0.8761 -0.0186 0.4817
vn 0.8762 -0.0186 0.4817
vn 0.3599 0.9118 0.1979
vn 0.7290 -0.0000 0.6845
vn 0.7288 -0.0186 0.6844
vn 0.2994 0.9118 0.2811
vn 0.7290 -0.0000 0.6846
vn 0.5358 -0.0000 0.8443
vn 0.5357 -0.0186 0.8442
vn 0.2201 0.9118 0.3468
vn 0.3090 -0.0000 0.9511
vn 0.3090 -0.0186 0.9509
vn 0.1269 0.9118 0.3906
vn 0.0628 -0.0000 0.9980
vn 0.0628 -0.0186 0.9979
vn 0.0258 0.9118 0.4099
vn -0.1874 -0.0000 0.9823
vn -0.1874 -0.0186 0.9821
vn -0.0770 0.9118 0.4034
vn -0.1874 0.0000 0.9823
vn -0.4258 -0.0000 0.9048
vn -0.4257 -0.0186 0.9047
vn -0.1749 0.9118 0.3716
vn -0.4258 0.0000 0.9048
vn -0.6374 -0.0000 0.7705
vn -0.6373 -0.0186 0.7704
vn -0.2618 0.9118 0.3164
vn -0.8090 -0.0000 0.5878
vn -0.8089 -0.0186 0.5877
vn -0.3323 0.9118 0.2414
vn -0.9298 -0.0000 0.3681
vn -0.9296 -0.0186 0.3680
vn -0.9296 -0.0186 0.3681
vn -0.3819 0.9118 0.1512
vn -0.9921 -0.0000 0.1253
vn -0.9919 -0.0186 0.1253
vn -0.4075 0.9118 0.0515
vn -0.9921 0.0000 -0.1253
vn -0.9919 -0.0186 -0.1253
vn -0.4075 0.9118 -0.0515
vn -0.9298 0.0000 -0.3681
vn -0.9296 -0.0186 -0.3681
vn -0.3819 0.9118 -0.1512
vn -0.8090 0.0000 -0.5878
vn -0.8089 -0.0186 -0.5877
vn -0.3323 0.9118 -0.2414
vn -0.6374 0.0000 -0.7705
vn -0.6373 -0.0186 -0.7704
vn -0.2618 0.9118 -0.3164
vn -0.4258 0.0000 -0.9048
vn -0.4257 -0.0186 -0.9047
vn -0.1749 0.9118 -0.3716
vn -0.1874 0.0000 -0.9823
vn -0.1873 -0.0186 -0.9821
vn -0.0770 0.9118 -0.4034
vn -0.1874 -0.0000 -0.9823
vn 0.0628 0.0000 -0.9980
vn 0.0628 -0.0186 -0.9979
vn 0.0258 0.9118 -0.4099
vn 0.0628 -0.0000 -0.9980
vn 0.3090 0.0000 -0.9511
vn 0.3090 -0.0186 -0.9509
vn 0.1269 0.9118 -0.3906
vn 0.5358 0.0000 -0.8443
vn 0.5357 -0.0186 -0.8442
vn 0.2201 0.9118 -0.3468
vn 0.7290 0.0000 -0.6845
vn 0.7289 -0.0186 -0.6844
vn 0.7288 -0.0186 -0.6844
vn 0.2994 0.9118 -0.2811
vn 0.8763 0.0000 -0.4818
vn 0.8762 -0.0186 -0.4817
vn 0.3599 0.9118 -0.1979
vn 0.8763 0.0000 -0.4817
vn 0.9686 0.0000 -0.2487
vn 0.9684 -0.0186 -0.2486
vn 0.3978 0.9118 -0.1021
# 86 vertex normals

o Line02
g Line02
f 3//3 2//2 1//1 
f 1//1 4//3 3//3 
f 6//4 5//4 2//4 
f 2//4 3//4 6//4 
f 8//6 7//5 5//5 
f 5//5 6//6 8//6 
f 10//4 9//4 7//4 
f 7//4 8//4 10//4 
f 12//8 11//7 9//7 
f 9//7 10//8 12//8 
f 14//3 13//2 11//1 
f 11//1 12//3 14//3 
f 15//9 3//3 4//3 
f 4//3 16//9 15//9 
f 17//4 6//4 3//4 
f 3//4 15//4 17//4 
f 18//10 8//6 6//6 
f 6//6 17//11 18//10 
f 19//4 10//4 8//4 
f 8//4 18//4 19//4 
f 20//12 12//8 10//8 
f 10//8 19//12 20//12 
f 21//9 14//3 12//3 
f 12//3 20//9 21//9 
f 22//13 15//9 16//9 
f 16//9 23//13 22//13 
f 24//4 17//4 15//4 
f 15//4 22//4 24//4 
f 25//14 18//10 17//11 
f 17//11 24//14 25//14 
f 26//4 19//4 18//4 
f 18//4 25//4 26//4 
f 27//15 20//12 19//12 
f 19//12 26//15 27//15 
f 28//16 21//9 20//9 
f 20//9 27//16 28//16 
f 29//17 22//13 23//13 
f 23//13 30//17 29//17 
f 31//4 24//4 22//4 
f 22//4 29//4 31//4 
f 32//18 25//14 24//14 
f 24//14 31//18 32//18 
f 33//4 26//4 25//4 
f 25//4 32//4 33//4 
f 34//19 27//15 26//15 
f 26//15 33//19 34//19 
f 35//17 28//16 27//16 
f 27//16 34//17 35//17 
f 36//20 29//17 30//17 
f 30//17 37//20 36//20 
f 38//4 31//4 29//4 
f 29//4 36//4 38//4 
f 39//21 32//18 31//18 
f 31//18 38//21 39//21 
f 40//4 33//4 32//4 
f 32//4 39//4 40//4 
f 41//22 34//19 33//19 
f 33//19 40//22 41//22 
f 42//20 35//17 34//17 
f 34//17 41//20 42//20 
f 43//23 36//20 37//20 
f 37//20 44//23 43//23 
f 45//4 38//4 36//4 
f 36//4 43//4 45//4 
f 46//24 39//21 38//21 
f 38//21 45//24 46//24 
f 47//4 40//4 39//4 
f 39//4 46//4 47//4 
f 48//25 41//22 40//22 
f 40//22 47//25 48//25 
f 49//23 42//20 41//20 
f 41//20 48//23 49//23 
f 50//26 43//23 44//23 
f 44//23 51//26 50//26 
f 52//4 45//4 43//4 
f 43//4 50//4 52//4 
f 53//27 46//24 45//24 
f 45//24 52//27 53//27 
f 54//4 47//4 46//4 
f 46//4 53//4 54//4 
f 55//28 48//25 47//25 
f 47//25 54//28 55//28 
f 56//26 49//23 48//23 
f 48//23 55//29 56//26 
f 57//30 50//26 51//26 
f 51//26 58//30 57//30 
f 59//4 52//4 50//4 
f 50//4 57//4 59//4 
f 60//31 53//27 52//27 
f 52//27 59//31 60//31 
f 61//4 54//4 53//4 
f 53//4 60//4 61//4 
f 62//32 55//28 54//28 
f 54//28 61//32 62//32 
f 63//33 56//26 55//29 
f 55//29 62//33 63//33 
f 64//34 57//30 58//30 
f 58//30 65//34 64//34 
f 66//4 59//4 57//4 
f 57//4 64//4 66//4 
f 67//35 60//31 59//31 
f 59//31 66//35 67//35 
f 68//4 61//4 60//4 
f 60//4 67//4 68//4 
f 69//36 62//32 61//32 
f 61//32 68//36 69//36 
f 70//34 63//33 62//33 
f 62//33 69//34 70//34 
f 71//37 64//34 65//34 
f 65//34 72//37 71//37 
f 73//4 66//4 64//4 
f 64//4 71//4 73//4 
f 74//38 67//35 66//35 
f 66//35 73//38 74//38 
f 75//4 68//4 67//4 
f 67//4 74//4 75//4 
f 76//39 69//36 68//36 
f 68//36 75//39 76//39 
f 77//37 70//34 69//34 
f 69//34 76//37 77//37 
f 78//40 71//37 72//37 
f 72//37 79//40 78//40 
f 80//4 73//4 71//4 
f 71//4 78//4 80//4 
f 81//41 74//38 73//38 
f 73//38 80//42 81//41 
f 82//4 75//4 74//4 
f 74//4 81//4 82//4 
f 83//43 76//39 75//39 
f 75//39 82//43 83//43 
f 84//40 77//37 76//37 
f 76//37 83//40 84//40 
f 85//44 78//40 79//40 
f 79//40 86//44 85//44 
f 87//4 80//4 78//4 
f 78//4 85//4 87//4 
f 88//45 81//41 80//42 
f 80//42 87//45 88//45 
f 89//4 82//4 81//4 
f 81//4 88//4 89//4 
f 90//46 83//43 82//43 
f 82//43 89//46 90//46 
f 91//44 84//40 83//40 
f 83//40 90//44 91//44 
f 92//47 85//44 86//44 
f 86//44 93//47 92//47 
f 94//4 87//4 85//4 
f 85//4 92//4 94//4 
f 95//48 88//45 87//45 
f 87//45 94//48 95//48 
f 96//4 89//4 88//4 
f 88//4 95//4 96//4 
f 97//49 90//46 89//46 
f 89//46 96//49 97//49 
f 98//47 91//44 90//44 
f 90//44 97//47 98//47 
f 99//50 92//47 93//47 
f 93//47 100//50 99//50 
f 101//4 94//4 92//4 
f 92//4 99//4 101//4 
f 102//51 95//48 94//48 
f 94//48 101//51 102//51 
f 103//4 96//4 95//4 
f 95//4 102//4 103//4 
f 104//52 97//49 96//49 
f 96//49 103//52 104//52 
f 105//50 98//47 97//47 
f 97//47 104//50 105//50 
f 106//53 99//50 100//50 
f 100//50 107//53 106//53 
f 108//4 101//4 99//4 
f 99//4 106//4 108//4 
f 109//54 102//51 101//51 
f 101//51 108//54 109//54 
f 110//4 103//4 102//4 
f 102//4 109//4 110//4 
f 111//55 104//52 103//52 
f 103//52 110//55 111//55 
f 112//53 105//50 104//50 
f 104//50 111//53 112//53 
f 113//56 106//53 107//53 
f 107//53 114//56 113//56 
f 115//4 108//4 106//4 
f 106//4 113//4 115//4 
f 116//57 109//54 108//54 
f 108//54 115//57 116//57 
f 117//4 110//4 109//4 
f 109//4 116//4 117//4 
f 118//58 111//55 110//55 
f 110//55 117//58 118//58 
f 119//56 112//53 111//53 
f 111//53 118//56 119//56 
f 120//59 113//56 114//56 
f 114//56 121//59 120//59 
f 122//4 115//4 113//4 
f 113//4 120//4 122//4 
f 123//60 116//57 115//57 
f 115//57 122//60 123//60 
f 124//4 117//4 116//4 
f 116//4 123//4 124//4 
f 125//61 118//58 117//58 
f 117//58 124//61 125//61 
f 126//59 119//56 118//56 
f 118//56 125//59 126//59 
f 127//62 120//59 121//59 
f 121//59 128//62 127//62 
f 129//4 122//4 120//4 
f 120//4 127//4 129//4 
f 130//63 123//60 122//60 
f 122//60 129//63 130//63 
f 131//4 124//4 123//4 
f 123//4 130//4 131//4 
f 132//64 125//61 124//61 
f 124//61 131//64 132//64 
f 133//62 126//59 125//59 
f 125//59 132//65 133//62 
f 134//66 127//62 128//62 
f 128//62 135//66 134//66 
f 136//4 129//4 127//4 
f 127//4 134//4 136//4 
f 137//67 130//63 129//63 
f 129//63 136//67 137//67 
f 138//4 131//4 130//4 
f 130//4 137//4 138//4 
f 139//68 132//64 131//64 
f 131//64 138//68 139//68 
f 140//69 133//62 132//65 
f 132//65 139//66 140//69 
f 141//70 134//66 135//66 
f 135//66 142//70 141//70 
f 143//4 136//4 134//4 
f 134//4 141//4 143//4 
f 144//71 137//67 136//67 
f 136//67 143//71 144//71 
f 145//4 138//4 137//4 
f 137//4 144//4 145//4 
f 146//72 139//68 138//68 
f 138//68 145//72 146//72 
f 147//70 140//69 139//66 
f 139//66 146//70 147//70 
f 148//73 141//70 142//70 
f 142//70 149//73 148//73 
f 150//4 143//4 141//4 
f 141//4 148//4 150//4 
f 151//74 144//71 143//71 
f 143//71 150//74 151//74 
f 152//4 145//4 144//4 
f 144//4 151//4 152//4 
f 153//75 146//72 145//72 
f 145//72 152//75 153//75 
f 154//73 147//70 146//70 
f 146//70 153//73 154//73 
f 155//76 148//73 149//73 
f 149//73 156//76 155//76 
f 157//4 150//4 148//4 
f 148//4 155//4 157//4 
f 158//77 151//74 150//74 
f 150//74 157//78 158//77 
f 159//4 152//4 151//4 
f 151//4 158//4 159//4 
f 160//79 153//75 152//75 
f 152//75 159//79 160//79 
f 161//76 154//73 153//73 
f 153//73 160//76 161//76 
f 162//80 155//76 156//76 
f 156//76 163//80 162//80 
f 164//4 157//4 155//4 
f 155//4 162//4 164//4 
f 165//81 158//77 157//78 
f 157//78 164//81 165//81 
f 166//4 159//4 158//4 
f 158//4 165//4 166//4 
f 167//82 160//79 159//79 
f 159//79 166//82 167//82 
f 168//83 161//76 160//76 
f 160//76 167//83 168//83 
f 169//84 162//80 163//80 
f 163//80 170//84 169//84 
f 171//4 164//4 162//4 
f 162//4 169//4 171//4 
f 172//85 165//81 164//81 
f 164//81 171//85 172//85 
f 173//4 166//4 165//4 
f 165//4 172//4 173//4 
f 174//86 167//82 166//82 
f 166//82 173//86 174//86 
f 175//84 168//83 167//83 
f 167//83 174//84 175//84 
f 2//2 169//84 170//84 
f 170//84 1//1 2//2 
f 5//4 171//4 169//4 
f 169//4 2//4 5//4 
f 7//5 172//85 171//85 
f 171//85 5//5 7//5 
f 9//4 173//4 172//4 
f 172//4 7//4 9//4 
f 11//7 174//86 173//86 
f 173//86 9//7 11//7 
f 13//2 175//84 174//84 
f 174//84 11//1 13//2 
# 300 faces

#
# object Line01
#

v  -347.2129 1389.7800 -197.1725
v  -374.8549 1179.3879 -197.1727
v  -370.0191 1179.3879 -235.4501
v  -343.2455 1389.7800 -228.5756
v  -355.8159 1179.3879 -271.3224
v  -331.5931 1389.7800 -258.0056
v  -333.1379 1179.3879 -302.5355
v  -312.9879 1389.7800 -283.6131
v  -303.4100 1179.3879 -327.1282
v  -288.5988 1389.7800 -303.7891
v  -268.5002 1179.3879 -343.5552
v  -259.9585 1389.7800 -317.2660
v  -230.6018 1179.3879 -350.7844
v  -228.8663 1389.7800 -323.1969
v  -192.0962 1179.3879 -348.3616
v  -197.2760 1389.7800 -321.2092
v  -155.4029 1179.3879 -336.4389
v  -167.1725 1389.7800 -311.4277
v  -122.8274 1179.3879 -315.7655
v  -140.4472 1389.7800 -294.4671
v  -96.4167 1179.3879 -287.6405
v  -118.7796 1389.7800 -271.3930
v  -77.8300 1179.3879 -253.8309
v  -103.5310 1389.7800 -243.6554
v  -68.2354 1179.3879 -216.4613
v  -95.6595 1389.7800 -212.9970
v  -68.2357 1179.3879 -177.8796
v  -95.6597 1389.7800 -181.3442
v  -77.8309 1179.3879 -140.5101
v  -103.5317 1389.7800 -150.6859
v  -96.4180 1179.3879 -106.7007
v  -118.7808 1389.7800 -122.9484
v  -122.8292 1179.3879 -78.5761
v  -140.4488 1389.7800 -99.8747
v  -155.4050 1179.3879 -57.9032
v  -167.1742 1389.7800 -82.9145
v  -192.0985 1179.3879 -45.9811
v  -197.2779 1389.7800 -73.1335
v  -230.6040 1179.3879 -43.5588
v  -228.8682 1389.7800 -71.1462
v  -268.5023 1179.3879 -50.7886
v  -259.9603 1389.7800 -77.0776
v  -303.4119 1179.3879 -67.2161
v  -288.6005 1389.7800 -90.5549
v  -333.1395 1179.3879 -91.8093
v  -312.9892 1389.7800 -110.7314
v  -355.8170 1179.3879 -123.0228
v  -331.5941 1389.7800 -136.3392
v  -370.0196 1179.3879 -158.8952
v  -343.2460 1389.7800 -165.7693
# 50 vertices

vn -0.9930 0.1177 -0.0000
vn -0.9618 0.1177 -0.2470
vn -0.8702 0.1177 -0.4784
vn -0.7239 0.1177 -0.6798
vn -0.5321 0.1177 -0.8385
vn -0.3069 0.1177 -0.9444
vn -0.0623 0.1177 -0.9911
vn 0.1861 0.1177 -0.9755
vn 0.4228 0.1177 -0.8985
vn 0.6330 0.1177 -0.7652
vn 0.8034 0.1177 -0.5837
vn 0.9233 0.1177 -0.3656
vn 0.9852 0.1177 -0.1245
vn 0.9852 0.1177 0.1245
vn 0.9233 0.1177 0.3656
vn 0.8034 0.1177 0.5837
vn 0.6330 0.1177 0.7652
vn 0.4228 0.1177 0.8985
vn 0.1861 0.1177 0.9755
vn -0.0624 0.1177 0.9911
vn -0.3069 0.1177 0.9444
vn -0.5321 0.1177 0.8385
vn -0.7239 0.1177 0.6798
vn -0.8702 0.1177 0.4784
vn -0.9619 0.1177 0.2470
# 25 vertex normals

vt 0.0000 0.0000 0.0000
vt 0.4980 0.0000 0.0000
vt 0.4980 0.0400 0.0000
vt 0.0000 0.0400 0.0000
vt 0.4980 0.0800 0.0000
vt 0.0000 0.0800 0.0000
vt 0.4980 0.1200 0.0000
vt 0.0000 0.1200 0.0000
vt 0.4980 0.1600 0.0000
vt 0.0000 0.1600 0.0000
vt 0.4980 0.2000 0.0000
vt 0.0000 0.2000 0.0000
vt 0.4980 0.2400 0.0000
vt 0.0000 0.2400 0.0000
vt 0.4980 0.2800 0.0000
vt 0.0000 0.2800 0.0000
vt 0.4980 0.3200 0.0000
vt 0.0000 0.3200 0.0000
vt 0.4980 0.3600 0.0000
vt 0.0000 0.3600 0.0000
vt 0.4980 0.4000 0.0000
vt 0.0000 0.4000 0.0000
vt 0.4980 0.4400 0.0000
vt 0.0000 0.4400 0.0000
vt 0.4980 0.4800 0.0000
vt 0.0000 0.4800 0.0000
vt 0.4980 0.5200 0.0000
vt 0.0000 0.5200 0.0000
vt 0.4980 0.5600 0.0000
vt 0.0000 0.5600 0.0000
vt 0.4980 0.6000 0.0000
vt 0.0000 0.6000 0.0000
vt 0.4980 0.6400 0.0000
vt 0.0000 0.6400 0.0000
vt 0.4980 0.6800 0.0000
vt 0.0000 0.6800 0.0000
vt 0.4980 0.7200 0.0000
vt 0.0000 0.7200 0.0000
vt 0.4980 0.7600 0.0000
vt 0.0000 0.7600 0.0000
vt 0.4980 0.8000 0.0000
vt 0.0000 0.8000 0.0000
vt 0.4980 0.8400 0.0000
vt 0.0000 0.8400 0.0000
vt 0.4980 0.8800 0.0000
vt 0.0000 0.8800 0.0000
vt 0.4980 0.9200 0.0000
vt 0.0000 0.9200 0.0000
vt 0.4980 0.9600 0.0000
vt 0.0000 0.9600 0.0000
vt 0.4980 1.0000 0.0000
vt 0.0000 1.0000 0.0000
# 52 texture coords

o Line01
g Line01
f 178/3/88 177/2/87 176/1/87 
f 176/1/87 179/4/88 178/3/88 
f 180/5/89 178/3/88 179/4/88 
f 179/4/88 181/6/89 180/5/89 
f 182/7/90 180/5/89 181/6/89 
f 181/6/89 183/8/90 182/7/90 
f 184/9/91 182/7/90 183/8/90 
f 183/8/90 185/10/91 184/9/91 
f 186/11/92 184/9/91 185/10/91 
f 185/10/91 187/12/92 186/11/92 
f 188/13/93 186/11/92 187/12/92 
f 187/12/92 189/14/93 188/13/93 
f 190/15/94 188/13/93 189/14/93 
f 189/14/93 191/16/94 190/15/94 
f 192/17/95 190/15/94 191/16/94 
f 191/16/94 193/18/95 192/17/95 
f 194/19/96 192/17/95 193/18/95 
f 193/18/95 195/20/96 194/19/96 
f 196/21/97 194/19/96 195/20/96 
f 195/20/96 197/22/97 196/21/97 
f 198/23/98 196/21/97 197/22/97 
f 197/22/97 199/24/98 198/23/98 
f 200/25/99 198/23/98 199/24/98 
f 199/24/98 201/26/99 200/25/99 
f 202/27/100 200/25/99 201/26/99 
f 201/26/99 203/28/100 202/27/100 
f 204/29/101 202/27/100 203/28/100 
f 203/28/100 205/30/101 204/29/101 
f 206/31/102 204/29/101 205/30/101 
f 205/30/101 207/32/102 206/31/102 
f 208/33/103 206/31/102 207/32/102 
f 207/32/102 209/34/103 208/33/103 
f 210/35/104 208/33/103 209/34/103 
f 209/34/103 211/36/104 210/35/104 
f 212/37/105 210/35/104 211/36/104 
f 211/36/104 213/38/105 212/37/105 
f 214/39/106 212/37/105 213/38/105 
f 213/38/105 215/40/106 214/39/106 
f 216/41/107 214/39/106 215/40/106 
f 215/40/106 217/42/107 216/41/107 
f 218/43/108 216/41/107 217/42/107 
f 217/42/107 219/44/108 218/43/108 
f 220/45/109 218/43/108 219/44/108 
f 219/44/108 221/46/109 220/45/109 
f 222/47/110 220/45/109 221/46/109 
f 221/46/109 223/48/110 222/47/110 
f 224/49/111 222/47/110 223/48/110 
f 223/48/110 225/50/111 224/49/111 
f 177/51/87 224/49/111 225/50/111 
f 225/50/111 176/52/87 177/51/87 
# 50 faces

