# 3ds Max Wavefront OBJ Exporter v0.99 - (c)2007 guruware
# 创建的文件:31.12.2021 15:33:26

#
# object Line02
#

v  -211.91375732 1208.33801270 -197.17147827
v  -211.91375732 1127.59375000 -197.17147827
v  -212.14524841 1127.59375000 -195.33908081
v  -212.14523315 1208.33801270 -195.33908081
v  -202.49398804 1127.59375000 -197.17141724
v  -203.02143860 1127.59375000 -192.99641418
v  -209.89352417 769.19732666 -197.17146301
v  -210.18850708 769.19732666 -194.83665466
v  -151.40782166 769.19732666 -197.17102051
v  -153.54035950 769.19732666 -180.29141235
v  -137.55773926 763.56829834 -197.17091370
v  -140.12542725 763.56829834 -176.84693909
v  -137.55773926 747.53857422 -197.17091370
v  -140.12542725 747.53857422 -176.84693909
v  -212.82516479 1127.59375000 -193.62181091
v  -212.82516479 1208.33801270 -193.62181091
v  -204.57058716 1127.59375000 -189.08374023
v  -211.05487061 769.19732666 -192.64855957
v  -159.80368042 769.19732666 -164.47245789
v  -147.66680908 763.56829834 -157.80003357
v  -147.66680908 747.53857422 -157.80003357
v  -213.91078186 1127.59375000 -192.12759399
v  -213.91078186 1208.33801270 -192.12759399
v  -207.04411316 1127.59375000 -185.67926025
v  -212.43817139 769.19732666 -190.74465942
v  -169.80422974 769.19732666 -150.70809937
v  -159.70802307 763.56829834 -141.22698975
v  -159.70802307 747.53857422 -141.22698975
v  -215.33390808 1127.59375000 -190.95030212
v  -215.33389282 1208.33801270 -190.95028687
v  -210.28660583 1127.59375000 -182.99688721
v  -214.25148010 769.19732666 -189.24458313
v  -182.91366577 769.19732666 -139.86323547
v  -175.49250793 763.56829834 -128.16915894
v  -175.49250793 747.53857422 -128.16915894
v  -217.00509644 1127.59375000 -190.16389465
v  -217.00508118 1208.33801270 -190.16389465
v  -214.09429932 1127.59375000 -181.20513916
v  -216.38088989 769.19732666 -188.24258423
v  -198.30824280 769.19732666 -132.61924744
v  -194.02842712 763.56829834 -119.44699097
v  -194.02842712 747.53857422 -119.44699097
v  -218.81935120 1127.59375000 -189.81781006
v  -218.81933594 1208.33801270 -189.81781006
v  -218.22795105 1127.59375000 -180.41662598
v  -218.69258118 769.19732666 -187.80163574
v  -215.02067566 769.19732666 -129.43130493
v  -214.15113831 763.56829834 -115.60855103
v  -214.15113831 747.53857422 -115.60855865
v  -220.66267395 1127.59375000 -189.93379211
v  -220.66265869 1208.33801270 -189.93377686
v  -222.42782593 1127.59375000 -180.68089294
v  -221.04130554 769.19732666 -187.94943237
v  -232.00086975 769.19732666 -130.49975586
v  -234.59622192 763.56829834 -116.89501190
v  -234.59622192 747.53857422 -116.89501190
v  -222.41923523 1127.59375000 -190.50454712
v  -222.41921997 1208.33801270 -190.50453186
v  -226.43005371 1127.59375000 -181.98132324
v  -223.27947998 769.19732666 -188.67669678
v  -248.18190002 769.19732666 -135.75743103
v  -254.07907104 763.56829834 -123.22555542
v  -254.07907104 747.53857422 -123.22555542
v  -223.97868347 1127.59375000 -191.49420166
v  -223.97866821 1208.33801270 -191.49418640
v  -229.98312378 1127.59375000 -184.23619080
v  -225.26647949 769.19732666 -189.93771362
v  -262.54702759 769.19732666 -144.87399292
v  -271.37548828 763.56829834 -134.20239258
v  -271.37548828 747.53857422 -134.20239258
v  -225.24301147 1127.59375000 -192.84059143
v  -225.24301147 1208.33801270 -192.84056091
v  -232.86381531 1127.59375000 -187.30384827
v  -226.87745667 769.19732666 -191.65325928
v  -274.19366455 769.19732666 -157.27659607
v  -285.39868164 763.56829834 -149.13580322
v  -285.39868164 747.53857422 -149.13580322
v  -226.13279724 1127.59375000 -194.45910645
v  -226.13278198 1208.33801270 -194.45907593
v  -234.89109802 1127.59375000 -190.99153137
v  -228.01116943 769.19732666 -193.71554565
v  -282.38998413 769.19732666 -172.18595886
v  -295.26751709 763.56829834 -167.08749390
v  -295.26751709 747.53857422 -167.08750916
v  -226.59210205 1127.59375000 -196.24804688
v  -226.59210205 1208.33801270 -196.24801636
v  -235.93759155 1127.59375000 -195.06750488
v  -228.59640503 769.19732666 -195.99497986
v  -286.62100220 769.19732666 -188.66523743
v  -300.36187744 763.56829834 -186.92945862
v  -300.36187744 747.53857422 -186.92947388
v  -226.59210205 1127.59375000 -198.09501648
v  -226.59210205 1208.33801270 -198.09498596
v  -235.93757629 1127.59375000 -199.27569580
v  -228.59637451 769.19732666 -198.34835815
v  -286.62084961 769.19732666 -205.67900085
v  -300.36172485 763.56829834 -207.41497803
v  -300.36172485 747.53857422 -207.41499329
v  -226.13278198 1127.59375000 -199.88395691
v  -226.13278198 1208.33801270 -199.88392639
v  -234.89102173 1127.59375000 -203.35166931
v  -228.01109314 769.19732666 -200.62777710
v  -282.38955688 769.19732666 -222.15821838
v  -295.26702881 763.56829834 -227.25688171
v  -295.26702881 747.53857422 -227.25689697
v  -225.24298096 1127.59375000 -201.50245667
v  -225.24299622 1208.33801270 -201.50244141
v  -232.86369324 1127.59375000 -207.03932190
v  -226.87733459 769.19732666 -202.69004822
v  -274.19299316 769.19732666 -237.06745911
v  -285.39785767 763.56829834 -245.20843506
v  -285.39785767 747.53857422 -245.20843506
v  -223.97863770 1127.59375000 -202.84883118
v  -223.97865295 1208.33801270 -202.84881592
v  -229.98297119 1127.59375000 -210.10694885
v  -225.26632690 769.19732666 -204.40556335
v  -262.54614258 769.19732666 -249.46986389
v  -271.37445068 763.56829834 -260.14160156
v  -271.37445068 747.53857422 -260.14160156
v  -222.41918945 1127.59375000 -203.83848572
v  -222.41920471 1208.33801270 -203.83847046
v  -226.42987061 1127.59375000 -212.36178589
v  -223.27929688 769.19732666 -205.66653442
v  -248.18086243 769.19732666 -258.58618164
v  -254.07785034 763.56829834 -271.11816406
v  -254.07785034 747.53857422 -271.11816406
v  -220.66262817 1127.59375000 -204.40922546
v  -220.66262817 1208.33801270 -204.40921021
v  -222.42764282 1127.59375000 -213.66215515
v  -221.04109192 769.19732666 -206.39373779
v  -231.99975586 769.19732666 -263.84359741
v  -234.59489441 763.56829834 -277.44836426
v  -234.59489441 747.53857422 -277.44836426
v  -218.81930542 1127.59375000 -204.52519226
v  -218.81930542 1208.33801270 -204.52517700
v  -218.22775269 1127.59375000 -213.92637634
v  -218.69236755 769.19732666 -206.54148865
v  -215.01956177 769.19732666 -264.91174316
v  -214.14981079 763.56829834 -278.73449707
v  -214.14981079 747.53857422 -278.73449707
v  -217.00505066 1127.59375000 -204.17909241
v  -217.00506592 1208.33801270 -204.17909241
v  -214.09411621 1127.59375000 -213.13780212
v  -216.38069153 769.19732666 -206.10047913
v  -198.30717468 769.19732666 -261.72354126
v  -194.02716064 763.56829834 -274.89572144
v  -194.02716064 747.53857422 -274.89575195
v  -215.33386230 1127.59375000 -203.39270020
v  -215.33387756 1208.33801270 -203.39268494
v  -210.28643799 1127.59375000 -211.34603882
v  -214.25131226 769.19732666 -205.09844971
v  -182.91273499 769.19732666 -254.47932434
v  -175.49139404 763.56829834 -266.17327881
v  -175.49139404 747.53857422 -266.17327881
v  -213.91076660 1127.59375000 -202.21539307
v  -213.91076660 1208.33801270 -202.21537781
v  -207.04399109 1127.59375000 -208.66360474
v  -212.43801880 769.19732666 -203.59832764
v  -169.80345154 769.19732666 -243.63418579
v  -159.70710754 763.56829834 -253.11515808
v  -159.70709229 747.53857422 -253.11515808
v  -212.82513428 1127.59375000 -200.72116089
v  -212.82514954 1208.33801270 -200.72116089
v  -204.57049561 1127.59375000 -205.25909424
v  -211.05477905 769.19732666 -201.69439697
v  -159.80313110 769.19732666 -229.86967468
v  -147.66613770 763.56829834 -236.54191589
v  -147.66613770 747.53857422 -236.54191589
v  -212.14523315 1127.59375000 -199.00389099
v  -212.14523315 1208.33801270 -199.00389099
v  -203.02137756 1127.59375000 -201.34642029
v  -210.18846130 769.19732666 -199.50628662
v  -153.54008484 769.19732666 -214.05064392
v  -140.12509155 763.56829834 -217.49491882
v  -140.12509155 747.53857422 -217.49491882
# 175 vertices

vn 1.00000000 -0.00000001 0.00000177
vn 1.00000000 0.00000001 0.00000319
vn 0.96858227 -0.00000001 0.24869338
vn 0.96858281 -0.00000006 0.24869126
vn 0.00000000 1.00000000 -0.00000001
vn 0.99982655 -0.01862578 0.00000582
vn 0.99982655 -0.01862573 0.00001122
vn 0.96841240 -0.01862577 0.24865757
vn 0.96841365 -0.01862581 0.24865249
vn 0.41069427 0.91177309 0.00000334
vn 0.41069433 0.91177309 0.00000330
vn 0.39779079 0.91177309 0.10213877
vn 0.39779079 0.91177309 0.10213880
vn 1.00000000 -0.00000000 0.00000809
vn 1.00000000 0.00000000 0.00000809
vn 0.96858114 -0.00000001 0.24869774
vn 0.96858114 -0.00000001 0.24869780
vn 0.87630522 -0.00000005 0.48175636
vn 0.87630630 -0.00000009 0.48175448
vn 0.87614942 -0.01862581 0.48167965
vn 0.87615192 -0.01862585 0.48167515
vn 0.35989261 0.91177309 0.19785641
vn 0.35989255 0.91177309 0.19785640
vn 0.87630278 -0.00000000 0.48176083
vn 0.87630278 -0.00000002 0.48176080
vn 0.72896671 -0.00000009 0.68454909
vn 0.72896785 -0.00000012 0.68454790
vn 0.72883469 -0.01862584 0.68443626
vn 0.72883832 -0.01862589 0.68443245
vn 0.29938096 0.91177309 0.28114203
vn 0.29938093 0.91177309 0.28114206
vn 0.72896296 -0.00000007 0.68455309
vn 0.72896302 -0.00000010 0.68455303
vn 0.53582430 -0.00000010 0.84432948
vn 0.53582567 -0.00000014 0.84432864
vn 0.53572458 -0.01862586 0.84418732
vn 0.53572929 -0.01862591 0.84418434
vn 0.22005820 0.91177309 0.34676248
vn 0.22005816 0.91177309 0.34676251
vn 0.53581995 -0.00000007 0.84433228
vn 0.53582001 -0.00000007 0.84433222
vn 0.30901447 -0.00000011 0.95105731
vn 0.30901650 -0.00000015 0.95105666
vn 0.30895343 -0.01862588 0.95089477
vn 0.30895853 -0.01862593 0.95089310
vn 0.12690833 0.91177315 0.39059439
vn 0.12690830 0.91177315 0.39059445
vn 0.30900925 -0.00000004 0.95105904
vn 0.30900931 -0.00000010 0.95105904
vn 0.06278731 -0.00000012 0.99802691
vn 0.06278948 -0.00000016 0.99802679
vn 0.06276935 -0.01862589 0.99785423
vn 0.06277362 -0.01862593 0.99785393
vn 0.02578439 0.91177309 0.40988407
vn 0.02578439 0.91177309 0.40988410
vn 0.06278242 -0.00000023 0.99802721
vn -0.18738504 -0.00000012 0.98228657
vn -0.18738273 -0.00000017 0.98228699
vn -0.18735982 -0.01862589 0.98211473
vn -0.18735501 -0.01862592 0.98211569
vn -0.07695979 0.91177309 0.40341914
vn -0.07695979 0.91177309 0.40341920
vn -0.18738936 -0.00000006 0.98228574
vn -0.18738945 0.00000003 0.98228574
vn -0.42578220 -0.00000012 0.90482569
vn -0.42578071 -0.00000016 0.90482640
vn -0.42571604 -0.01862587 0.90466511
vn -0.42571041 -0.01862592 0.90466774
vn -0.17486818 0.91177303 0.37160608
vn -0.17486820 0.91177303 0.37160599
vn -0.42578685 0.00000012 0.90482348
vn -0.42578673 0.00000004 0.90482354
vn -0.63742596 -0.00000010 0.77051163
vn -0.63742512 -0.00000012 0.77051228
vn -0.63732153 -0.01862585 0.77037281
vn -0.63731778 -0.01862589 0.77037597
vn -0.26178896 0.91177315 0.31644318
vn -0.26178902 0.91177315 0.31644315
vn -0.63743031 -0.00000013 0.77050799
vn -0.63743019 -0.00000023 0.77050805
vn -0.80901849 -0.00000005 0.58778316
vn -0.80901706 -0.00000010 0.58778512
vn -0.80888289 -0.01862583 0.58767462
vn -0.80888015 -0.01862587 0.58767843
vn -0.33226061 0.91177315 0.24139729
vn -0.33226064 0.91177309 0.24139734
vn -0.80902189 -0.00000017 0.58777851
vn -0.92977804 -0.00000003 0.36812070
vn -0.92977697 -0.00000009 0.36812344
vn -0.92961979 -0.01862579 0.36804911
vn -0.92961782 -0.01862583 0.36805418
vn -0.38185519 0.91177309 0.15118353
vn -0.38185525 0.91177309 0.15118350
vn -0.92977959 -0.00000011 0.36811680
vn -0.99211520 -0.00000001 0.12532936
vn -0.99211496 -0.00000004 0.12533084
vn -0.99194407 -0.01862574 0.12529978
vn -0.99194342 -0.01862579 0.12530495
vn -0.40745637 0.91177309 0.05147028
vn -0.40745637 0.91177309 0.05147021
vn -0.99211574 -0.00000004 0.12532501
vn -0.99211574 -0.00000004 0.12532505
vn -0.99211442 0.00000004 -0.12533556
vn -0.99211460 0.00000001 -0.12533408
vn -0.99194127 -0.01862571 -0.12532218
vn -0.99194199 -0.01862576 -0.12531622
vn -0.40745556 0.91177303 -0.05147697
vn -0.40745550 0.91177309 -0.05147700
vn -0.99211371 0.00000004 -0.12534131
vn -0.99211371 0.00000004 -0.12534127
vn -0.92977583 0.00000009 -0.36812618
vn -0.92977691 0.00000003 -0.36812347
vn -0.92961115 -0.01862568 -0.36807093
vn -0.92961359 -0.01862573 -0.36806473
vn -0.38185275 0.91177309 -0.15118977
vn -0.38185275 0.91177309 -0.15118979
vn -0.92977351 0.00000011 -0.36813208
vn -0.92977351 0.00000014 -0.36813208
vn -0.80901444 0.00000010 -0.58778876
vn -0.80901593 0.00000005 -0.58778673
vn -0.80887043 -0.01862566 -0.58769184
vn -0.80887312 -0.01862570 -0.58768815
vn -0.33225673 0.91177309 -0.24140288
vn -0.33225667 0.91177309 -0.24140289
vn -0.80901200 0.00000032 -0.58779222
vn -0.80901206 0.00000025 -0.58779204
vn -0.63742036 0.00000012 -0.77051628
vn -0.63742113 0.00000010 -0.77051562
vn -0.63730490 -0.01862562 -0.77038664
vn -0.63730842 -0.01862566 -0.77038372
vn -0.26178375 0.91177309 -0.31644762
vn -0.26178363 0.91177315 -0.31644762
vn -0.63741750 0.00000017 -0.77051860
vn -0.63741761 0.00000009 -0.77051854
vn -0.42577714 0.00000016 -0.90482807
vn -0.42577860 0.00000012 -0.90482736
vn -0.42569482 -0.01862559 -0.90467507
vn -0.42570019 -0.01862564 -0.90467256
vn -0.17486207 0.91177309 -0.37160879
vn -0.17486203 0.91177315 -0.37160876
vn -0.42577171 0.00000025 -0.90483063
vn -0.42577171 0.00000020 -0.90483063
vn -0.18737809 0.00000017 -0.98228782
vn -0.18738042 0.00000012 -0.98228741
vn -0.18733828 -0.01862559 -0.98211884
vn -0.18734315 -0.01862563 -0.98211789
vn -0.07695305 0.91177315 -0.40342039
vn -0.07695300 0.91177315 -0.40342033
vn -0.18737307 0.00000005 -0.98228884
vn -0.18737312 -0.00000001 -0.98228878
vn 0.06279453 0.00000016 -0.99802649
vn 0.06279237 0.00000012 -0.99802661
vn 0.06279024 -0.01862559 -0.99785292
vn 0.06278591 -0.01862562 -0.99785322
vn 0.02579114 0.91177309 -0.40988368
vn 0.02579118 0.91177315 -0.40988362
vn 0.06279877 -0.00000000 -0.99802619
vn 0.06279879 0.00000007 -0.99802619
vn 0.30901960 0.00000015 -0.95105565
vn 0.30901760 0.00000011 -0.95105630
vn 0.30897447 -0.01862558 -0.95088792
vn 0.30896893 -0.01862563 -0.95088971
vn 0.12691465 0.91177309 -0.39059249
vn 0.12691467 0.91177309 -0.39059252
vn 0.30902472 0.00000026 -0.95105404
vn 0.30902472 0.00000026 -0.95105398
vn 0.53582937 0.00000014 -0.84432632
vn 0.53582799 0.00000010 -0.84432715
vn 0.53574347 -0.01862560 -0.84417534
vn 0.53573877 -0.01862565 -0.84417838
vn 0.22006382 0.91177309 -0.34675890
vn 0.22006387 0.91177315 -0.34675878
vn 0.53583372 0.00000014 -0.84432358
vn 0.53583360 0.00000007 -0.84432358
vn 0.72897130 0.00000012 -0.68454432
vn 0.72897029 0.00000009 -0.68454534
vn 0.72885042 -0.01862563 -0.68441963
vn 0.72884631 -0.01862568 -0.68442398
vn 0.29938558 0.91177315 -0.28113705
vn 0.29938558 0.91177315 -0.28113699
vn 0.72897440 0.00000010 -0.68454099
vn 0.72897440 0.00000007 -0.68454105
vn 0.87630785 0.00000009 -0.48175150
vn 0.87630683 0.00000005 -0.48175332
vn 0.87616003 -0.01862567 -0.48166037
vn 0.87615758 -0.01862571 -0.48166481
vn 0.35989577 0.91177315 -0.19785045
vn 0.87631071 0.00000002 -0.48174629
vn 0.87631071 0.00000000 -0.48174629
vn 0.96858388 0.00000006 -0.24868694
vn 0.96858335 0.00000001 -0.24868907
vn 0.96841776 -0.01862570 -0.24863636
vn 0.96841663 -0.01862574 -0.24864089
vn 0.39779237 0.91177315 -0.10213224
vn 0.39779240 0.91177309 -0.10213222
vn 0.96858519 0.00000001 -0.24868189
vn 0.96858519 0.00000001 -0.24868187
# 197 vertex normals

o Line02
g Line02
f 3//3 2//2 1//1 
f 1//1 4//4 3//3 
f 6//5 5//5 2//5 
f 2//5 3//5 6//5 
f 8//8 7//7 5//6 
f 5//6 6//9 8//8 
f 10//5 9//5 7//5 
f 7//5 8//5 10//5 
f 12//12 11//11 9//10 
f 9//10 10//13 12//12 
f 14//16 13//15 11//14 
f 11//14 12//17 14//16 
f 15//18 3//3 4//4 
f 4//4 16//19 15//18 
f 17//5 6//5 3//5 
f 3//5 15//5 17//5 
f 18//20 8//8 6//9 
f 6//9 17//21 18//20 
f 19//5 10//5 8//5 
f 8//5 18//5 19//5 
f 20//22 12//12 10//13 
f 10//13 19//23 20//22 
f 21//24 14//16 12//17 
f 12//17 20//25 21//24 
f 22//26 15//18 16//19 
f 16//19 23//27 22//26 
f 24//5 17//5 15//5 
f 15//5 22//5 24//5 
f 25//28 18//20 17//21 
f 17//21 24//29 25//28 
f 26//5 19//5 18//5 
f 18//5 25//5 26//5 
f 27//30 20//22 19//23 
f 19//23 26//31 27//30 
f 28//32 21//24 20//25 
f 20//25 27//33 28//32 
f 29//34 22//26 23//27 
f 23//27 30//35 29//34 
f 31//5 24//5 22//5 
f 22//5 29//5 31//5 
f 32//36 25//28 24//29 
f 24//29 31//37 32//36 
f 33//5 26//5 25//5 
f 25//5 32//5 33//5 
f 34//38 27//30 26//31 
f 26//31 33//39 34//38 
f 35//40 28//32 27//33 
f 27//33 34//41 35//40 
f 36//42 29//34 30//35 
f 30//35 37//43 36//42 
f 38//5 31//5 29//5 
f 29//5 36//5 38//5 
f 39//44 32//36 31//37 
f 31//37 38//45 39//44 
f 40//5 33//5 32//5 
f 32//5 39//5 40//5 
f 41//46 34//38 33//39 
f 33//39 40//47 41//46 
f 42//48 35//40 34//41 
f 34//41 41//49 42//48 
f 43//50 36//42 37//43 
f 37//43 44//51 43//50 
f 45//5 38//5 36//5 
f 36//5 43//5 45//5 
f 46//52 39//44 38//45 
f 38//45 45//53 46//52 
f 47//5 40//5 39//5 
f 39//5 46//5 47//5 
f 48//54 41//46 40//47 
f 40//47 47//55 48//54 
f 49//56 42//48 41//49 
f 41//49 48//56 49//56 
f 50//57 43//50 44//51 
f 44//51 51//58 50//57 
f 52//5 45//5 43//5 
f 43//5 50//5 52//5 
f 53//59 46//52 45//53 
f 45//53 52//60 53//59 
f 54//5 47//5 46//5 
f 46//5 53//5 54//5 
f 55//61 48//54 47//55 
f 47//55 54//62 55//61 
f 56//63 49//56 48//56 
f 48//56 55//64 56//63 
f 57//65 50//57 51//58 
f 51//58 58//66 57//65 
f 59//5 52//5 50//5 
f 50//5 57//5 59//5 
f 60//67 53//59 52//60 
f 52//60 59//68 60//67 
f 61//5 54//5 53//5 
f 53//5 60//5 61//5 
f 62//69 55//61 54//62 
f 54//62 61//70 62//69 
f 63//71 56//63 55//64 
f 55//64 62//72 63//71 
f 64//73 57//65 58//66 
f 58//66 65//74 64//73 
f 66//5 59//5 57//5 
f 57//5 64//5 66//5 
f 67//75 60//67 59//68 
f 59//68 66//76 67//75 
f 68//5 61//5 60//5 
f 60//5 67//5 68//5 
f 69//77 62//69 61//70 
f 61//70 68//78 69//77 
f 70//79 63//71 62//72 
f 62//72 69//80 70//79 
f 71//81 64//73 65//74 
f 65//74 72//82 71//81 
f 73//5 66//5 64//5 
f 64//5 71//5 73//5 
f 74//83 67//75 66//76 
f 66//76 73//84 74//83 
f 75//5 68//5 67//5 
f 67//5 74//5 75//5 
f 76//85 69//77 68//78 
f 68//78 75//86 76//85 
f 77//87 70//79 69//80 
f 69//80 76//87 77//87 
f 78//88 71//81 72//82 
f 72//82 79//89 78//88 
f 80//5 73//5 71//5 
f 71//5 78//5 80//5 
f 81//90 74//83 73//84 
f 73//84 80//91 81//90 
f 82//5 75//5 74//5 
f 74//5 81//5 82//5 
f 83//92 76//85 75//86 
f 75//86 82//93 83//92 
f 84//94 77//87 76//87 
f 76//87 83//94 84//94 
f 85//95 78//88 79//89 
f 79//89 86//96 85//95 
f 87//5 80//5 78//5 
f 78//5 85//5 87//5 
f 88//97 81//90 80//91 
f 80//91 87//98 88//97 
f 89//5 82//5 81//5 
f 81//5 88//5 89//5 
f 90//99 83//92 82//93 
f 82//93 89//100 90//99 
f 91//101 84//94 83//94 
f 83//94 90//102 91//101 
f 92//103 85//95 86//96 
f 86//96 93//104 92//103 
f 94//5 87//5 85//5 
f 85//5 92//5 94//5 
f 95//105 88//97 87//98 
f 87//98 94//106 95//105 
f 96//5 89//5 88//5 
f 88//5 95//5 96//5 
f 97//107 90//99 89//100 
f 89//100 96//108 97//107 
f 98//109 91//101 90//102 
f 90//102 97//110 98//109 
f 99//111 92//103 93//104 
f 93//104 100//112 99//111 
f 101//5 94//5 92//5 
f 92//5 99//5 101//5 
f 102//113 95//105 94//106 
f 94//106 101//114 102//113 
f 103//5 96//5 95//5 
f 95//5 102//5 103//5 
f 104//115 97//107 96//108 
f 96//108 103//116 104//115 
f 105//117 98//109 97//110 
f 97//110 104//118 105//117 
f 106//119 99//111 100//112 
f 100//112 107//120 106//119 
f 108//5 101//5 99//5 
f 99//5 106//5 108//5 
f 109//121 102//113 101//114 
f 101//114 108//122 109//121 
f 110//5 103//5 102//5 
f 102//5 109//5 110//5 
f 111//123 104//115 103//116 
f 103//116 110//124 111//123 
f 112//125 105//117 104//118 
f 104//118 111//126 112//125 
f 113//127 106//119 107//120 
f 107//120 114//128 113//127 
f 115//5 108//5 106//5 
f 106//5 113//5 115//5 
f 116//129 109//121 108//122 
f 108//122 115//130 116//129 
f 117//5 110//5 109//5 
f 109//5 116//5 117//5 
f 118//131 111//123 110//124 
f 110//124 117//132 118//131 
f 119//133 112//125 111//126 
f 111//126 118//134 119//133 
f 120//135 113//127 114//128 
f 114//128 121//136 120//135 
f 122//5 115//5 113//5 
f 113//5 120//5 122//5 
f 123//137 116//129 115//130 
f 115//130 122//138 123//137 
f 124//5 117//5 116//5 
f 116//5 123//5 124//5 
f 125//139 118//131 117//132 
f 117//132 124//140 125//139 
f 126//141 119//133 118//134 
f 118//134 125//142 126//141 
f 127//143 120//135 121//136 
f 121//136 128//144 127//143 
f 129//5 122//5 120//5 
f 120//5 127//5 129//5 
f 130//145 123//137 122//138 
f 122//138 129//146 130//145 
f 131//5 124//5 123//5 
f 123//5 130//5 131//5 
f 132//147 125//139 124//140 
f 124//140 131//148 132//147 
f 133//149 126//141 125//142 
f 125//142 132//150 133//149 
f 134//151 127//143 128//144 
f 128//144 135//152 134//151 
f 136//5 129//5 127//5 
f 127//5 134//5 136//5 
f 137//153 130//145 129//146 
f 129//146 136//154 137//153 
f 138//5 131//5 130//5 
f 130//5 137//5 138//5 
f 139//155 132//147 131//148 
f 131//148 138//156 139//155 
f 140//157 133//149 132//150 
f 132//150 139//158 140//157 
f 141//159 134//151 135//152 
f 135//152 142//160 141//159 
f 143//5 136//5 134//5 
f 134//5 141//5 143//5 
f 144//161 137//153 136//154 
f 136//154 143//162 144//161 
f 145//5 138//5 137//5 
f 137//5 144//5 145//5 
f 146//163 139//155 138//156 
f 138//156 145//164 146//163 
f 147//165 140//157 139//158 
f 139//158 146//166 147//165 
f 148//167 141//159 142//160 
f 142//160 149//168 148//167 
f 150//5 143//5 141//5 
f 141//5 148//5 150//5 
f 151//169 144//161 143//162 
f 143//162 150//170 151//169 
f 152//5 145//5 144//5 
f 144//5 151//5 152//5 
f 153//171 146//163 145//164 
f 145//164 152//172 153//171 
f 154//173 147//165 146//166 
f 146//166 153//174 154//173 
f 155//175 148//167 149//168 
f 149//168 156//176 155//175 
f 157//5 150//5 148//5 
f 148//5 155//5 157//5 
f 158//177 151//169 150//170 
f 150//170 157//178 158//177 
f 159//5 152//5 151//5 
f 151//5 158//5 159//5 
f 160//179 153//171 152//172 
f 152//172 159//180 160//179 
f 161//181 154//173 153//174 
f 153//174 160//182 161//181 
f 162//183 155//175 156//176 
f 156//176 163//184 162//183 
f 164//5 157//5 155//5 
f 155//5 162//5 164//5 
f 165//185 158//177 157//178 
f 157//178 164//186 165//185 
f 166//5 159//5 158//5 
f 158//5 165//5 166//5 
f 167//187 160//179 159//180 
f 159//180 166//187 167//187 
f 168//188 161//181 160//182 
f 160//182 167//189 168//188 
f 169//190 162//183 163//184 
f 163//184 170//191 169//190 
f 171//5 164//5 162//5 
f 162//5 169//5 171//5 
f 172//192 165//185 164//186 
f 164//186 171//193 172//192 
f 173//5 166//5 165//5 
f 165//5 172//5 173//5 
f 174//194 167//187 166//187 
f 166//187 173//195 174//194 
f 175//196 168//188 167//189 
f 167//189 174//197 175//196 
f 2//2 169//190 170//191 
f 170//191 1//1 2//2 
f 5//5 171//5 169//5 
f 169//5 2//5 5//5 
f 7//7 172//192 171//193 
f 171//193 5//6 7//7 
f 9//5 173//5 172//5 
f 172//5 7//5 9//5 
f 11//11 174//194 173//195 
f 173//195 9//10 11//11 
f 13//15 175//196 174//197 
f 174//197 11//14 13//15 
# 300 faces

