# 3ds Max Wavefront OBJ Exporter v0.99 - (c)2007 guruware
# 创建的文件:28.12.2021 22:21:38

mtllib 1.mtl

#
# object Line01
#

v  -370.01907349 1179.38806152 -235.45013428
v  -343.24551392 1389.78015137 -228.57563782
v  -347.21289063 1389.78015137 -197.17247009
v  -374.85491943 1179.38806152 -197.17268372
v  -355.81591797 1179.38806152 -271.32238770
v  -331.59313965 1389.78015137 -258.00555420
v  -333.13793945 1179.38806152 -302.53549194
v  -312.98788452 1389.78015137 -283.61306763
v  -303.41003418 1179.38806152 -327.12817383
v  -288.59884644 1389.78015137 -303.78912354
v  -268.50015259 1179.38806152 -343.55523682
v  -259.95846558 1389.78015137 -317.26599121
v  -230.60177612 1179.38806152 -350.78442383
v  -228.86627197 1389.78015137 -323.19689941
v  -192.09622192 1179.38806152 -348.36157227
v  -197.27598572 1389.78015137 -321.20916748
v  -155.40290833 1179.38806152 -336.43890381
v  -167.17245483 1389.78015137 -311.42770386
v  -122.82743835 1179.38806152 -315.76553345
v  -140.44723511 1389.78015137 -294.46707153
v  -96.41667175 1179.38806152 -287.64050293
v  -118.77961731 1389.78015137 -271.39303589
v  -77.83003235 1179.38806152 -253.83093262
v  -103.53097534 1389.78015137 -243.65536499
v  -68.23541260 1179.38806152 -216.46128845
v  -95.65946960 1389.78015137 -212.99696350
v  -68.23571777 1179.38806152 -177.87960815
v  -95.65971375 1389.78015137 -181.34419250
v  -77.83087158 1179.38806152 -140.51007080
v  -103.53169250 1389.78015137 -150.68589783
v  -96.41802979 1179.38806152 -106.70074463
v  -118.78077698 1389.78015137 -122.94841766
v  -122.82920837 1179.38806152 -78.57611084
v  -140.44876099 1389.78015137 -99.87471771
v  -155.40498352 1179.38806152 -57.90322876
v  -167.17422485 1389.78015137 -82.91449738
v  -192.09848022 1179.38793945 -45.98110962
v  -197.27790833 1389.78015137 -73.13349915
v  -230.60403442 1179.38793945 -43.55882263
v  -228.86819458 1389.78015137 -71.14624786
v  -268.50231934 1179.38793945 -50.78862000
v  -259.96029663 1389.78015137 -77.07763672
v  -303.41192627 1179.38806152 -67.21614075
v  -288.60046387 1389.78015137 -90.55492401
v  -333.13952637 1179.38806152 -91.80931854
v  -312.98922729 1389.78015137 -110.73139954
v  -355.81704712 1179.38806152 -123.02275848
v  -331.59408569 1389.78015137 -136.33920288
v  -370.01962280 1179.38806152 -158.89517212
v  -343.24600220 1389.78015137 -165.76925659
# 50 vertices

vn -0.96184641 0.11772205 -0.24696764
vn -0.96184629 0.11772205 -0.24696805
vn -0.99304658 0.11772201 -0.00000731
vn -0.99304658 0.11772201 -0.00000719
vn -0.87020981 0.11772207 -0.47841024
vn -0.87020981 0.11772207 -0.47841030
vn -0.72389483 0.11772212 -0.67979246
vn -0.72389466 0.11772211 -0.67979270
vn -0.53209502 0.11772212 -0.83846074
vn -0.53209442 0.11772213 -0.83846110
vn -0.30686158 0.11772218 -0.94444561
vn -0.30686113 0.11772218 -0.94444573
vn -0.06234623 0.11772217 -0.99108750
vn -0.06234602 0.11772216 -0.99108750
vn 0.18608567 0.11772215 -0.97545564
vn 0.18608564 0.11772217 -0.97545564
vn 0.42282501 0.11772211 -0.89853245
vn 0.42282528 0.11772211 -0.89853227
vn 0.63299721 0.11772210 -0.76515102
vn 0.63299805 0.11772210 -0.76515037
vn 0.80339599 0.11772209 -0.58369201
vn 0.80339617 0.11772207 -0.58369178
vn 0.92331403 0.11772198 -0.36555803
vn 0.92331415 0.11772199 -0.36555788
vn 0.98521698 0.11772203 -0.12445500
vn 0.98521703 0.11772203 -0.12445454
vn 0.98521519 0.11772196 0.12446921
vn 0.98521513 0.11772195 0.12446953
vn 0.92330855 0.11772196 0.36557192
vn 0.92330849 0.11772196 0.36557212
vn 0.80338728 0.11772192 0.58370411
vn 0.80338699 0.11772192 0.58370453
vn 0.63298601 0.11772186 0.76516026
vn 0.63298601 0.11772188 0.76516026
vn 0.42281178 0.11772186 0.89853871
vn 0.42281184 0.11772186 0.89853865
vn 0.18607104 0.11772186 0.97545838
vn 0.18607050 0.11772187 0.97545850
vn -0.06236131 0.11772183 0.99108660
vn -0.06236165 0.11772184 0.99108654
vn -0.30687520 0.11772187 0.94444114
vn -0.30687544 0.11772189 0.94444108
vn -0.53210723 0.11772188 0.83845299
vn -0.53210711 0.11772186 0.83845305
vn -0.72390497 0.11772189 0.67978168
vn -0.72390521 0.11772189 0.67978144
vn -0.87021691 0.11772194 0.47839740
vn -0.87021720 0.11772193 0.47839689
vn -0.96185005 0.11772196 0.24695353
vn -0.96185011 0.11772197 0.24695323
# 50 vertex normals

vt 0.49800217 0.04000000 
vt 0.00000000 0.04000000 
vt 0.00000000 0.00000000 
vt 0.49800217 0.00000000 
vt 0.49800217 0.08000000 
vt 0.00000000 0.08000000 
vt 0.49800217 0.12000000 
vt 0.00000000 0.12000000 
vt 0.49800217 0.16000000 
vt 0.00000000 0.16000000 
vt 0.49800217 0.20000000 
vt 0.00000000 0.20000000 
vt 0.49800217 0.23999999 
vt 0.00000000 0.23999999 
vt 0.49800217 0.28000000 
vt 0.00000000 0.28000000 
vt 0.49800217 0.31999999 
vt 0.00000000 0.31999999 
vt 0.49800217 0.36000001 
vt 0.00000000 0.36000001 
vt 0.49800217 0.40000001 
vt 0.00000000 0.40000001
vt 0.49800217 0.44000000 
vt 0.00000000 0.44000000 
vt 0.49800217 0.47999999 
vt 0.00000000 0.47999999 
vt 0.49800217 0.51999998 
vt 0.00000000 0.51999998 
vt 0.49800217 0.56000000 
vt 0.00000000 0.56000000 
vt 0.49800217 0.60000002 
vt 0.00000000 0.60000002 
vt 0.49800217 0.63999999 
vt 0.00000000 0.63999999 
vt 0.49800217 0.68000001 
vt 0.00000000 0.68000001 
vt 0.49800217 0.72000003 
vt 0.00000000 0.72000003 
vt 0.49800217 0.75999999 
vt 0.00000000 0.75999999 
vt 0.49800217 0.80000001 
vt 0.00000000 0.80000001 
vt 0.49800217 0.83999997 
vt 0.00000000 0.83999997 
vt 0.49800217 0.88000000 
vt 0.00000000 0.88000000 
vt 0.49800217 0.92000002 
vt 0.00000000 0.92000002 
vt 0.49800217 0.95999998 
vt 0.00000000 0.95999998 
vt 0.49800217 1.00000000 
vt 0.00000000 1.00000000 
# 52 texture coords

o Line01
g Line01
usemtl wire_000000000
s off
f 4/4/4 3/3/3 2/2/2  
f 1/1/1 2/2/2 6/6/6 
f 5/5/5 6/6/6 8/8/8  
f 7/7/7 8/8/8 10/10/10 
f 9/9/9 10/10/10 12/12/12 
f 11/11/11 12/12/12 14/14/14 
f 13/13/13 14/14/14 16/16/16 
f 15/15/15 16/16/16 18/18/18
f 17/17/17 18/18/18 20/20/20 
f 19/19/19 20/20/20 22/22/22 
f 21/21/21 22/22/22 24/24/24 
f 23/23/23 24/24/24 26/26/26 
f 25/25/25 26/26/26 28/28/28 
f 27/27/27 28/28/28 30/30/30 
f 29/29/29 30/30/30 32/32/32 
f 31/31/31 32/32/32 34/34/34 
f 33/33/33 34/34/34 36/36/36 
f 35/35/35 36/36/36 38/38/38 
f 37/37/37 38/38/38 40/40/40 
f 39/39/39 40/40/40 42/42/42 
f 41/41/41 42/42/42 44/44/44 
f 43/43/43 44/44/44 46/46/46 
f 45/45/45 46/46/46 48/48/48 
f 47/47/47 48/48/48 50/50/50 
f 49/49/49 50/50/50 3/52/3 
# 25 polygons


